<svg data-v-0dd9719b="" version="1.0" xmlns="http://www.w3.org/2000/svg" xmlns:xlink="http://www.w3.org/1999/xlink" width="100%" height="100%" viewBox="0 0 340.000000 250.000000" preserveAspectRatio="xMidYMid meet" color-interpolation-filters="sRGB" style="margin: auto;"> <rect data-v-0dd9719b="" x="0" y="0" width="100%" height="100%" fill="#fff" fill-opacity="1" class="background"></rect> <rect data-v-0dd9719b="" x="0" y="0" width="100%" height="100%" fill="url(#watermark)" fill-opacity="1" class="watermarklayer"></rect> <g data-v-0dd9719b="" fill="#333" class="icon-text-wrapper icon-svg-group iconsvg" transform="translate(48.5,92.28426742553711)"><g class="iconsvg-imagesvg" transform="translate(0,0)"><g><rect fill="#333" fill-opacity="0" stroke-width="2" x="0" y="0" width="60.00000000000001" height="65.43146599199557" class="image-rect"></rect> <svg x="0" y="0" width="60.00000000000001" height="65.43146599199557" filtersec="colorsb1553688714" class="image-svg-svg primary" style="overflow: visible;"><svg xmlns="http://www.w3.org/2000/svg" viewBox="-1.258370848928464e-13 0 85.38999938964844 93.12000274658203"><title>页面-1 (3)</title><g fill-rule="evenodd"><path d="M80.85 0a4.54 4.54 0 0 1 4.54 4.54v34.52H69V15.44H54v23.62H30.89V15.44h-15v23.62H0V17.71A17.71 17.71 0 0 1 17.71 0z" fill="#007cc2"></path><path d="M4.54 93.12A4.55 4.55 0 0 1 0 88.57V54.05h16.35v23.62h15V54.05h23.16v23.62h15V54.05h15.88V75.4a17.72 17.72 0 0 1-17.71 17.72z" fill="#8cc738"></path></g></svg></svg> <!----></g></g> <g transform="translate(67,6.854482650756836)"><g data-gra="path-name" fill-rule="" class="tp-name iconsvg-namesvg" transform="translate(0,0)"><g transform="scale(1)"><g><path d="M17.91-15.79L19.3-15.79 19.3-17.77 17.91-17.77 17.91-15.79ZM24.97-15.79L26.32-15.79 26.32-17.77 24.97-17.77 24.97-15.79ZM24.97-21.87L26.32-21.87 26.32-23.89 24.97-23.89 24.97-21.87ZM17.91-21.87L19.3-21.87 19.3-23.89 17.91-23.89 17.91-21.87ZM18.27-28.75L24.66-28.71 24.97-29.88 18.54-29.88 18.27-28.75ZM39.87 2.34L39.87 2.34 33.12 2.34Q32.4 2.34 32.4 0.99L32.4 0.99 32.35-5.13Q32.35-6.34 33.16-6.34L33.16-6.34 34.06-6.34 34.06-12.64 32.71-12.64Q32.04-12.64 32.04-13.99L32.04-13.99 32.04-20.47Q32.04-21.87 32.67-21.87L32.67-21.87 42.3-21.82Q42.98-21.82 42.98-20.47L42.98-20.47 43.02-13.99Q43.02-12.64 42.34-12.64L42.34-12.64 41.27-12.64 41.13 0.27Q41.13 2.34 39.87 2.34ZM41.63-24.66L41.63-24.66 33.12-24.66Q32.04-24.66 32.04-25.96L32.04-25.96 32.04-32.71Q32.04-34.16 33.07-34.16L33.07-34.16 41.58-34.06Q42.66-34.06 42.66-32.76L42.66-32.76 42.7-25.96Q42.7-24.66 41.63-24.66ZM10.21 2.34L10.21 2.34 4.81 2.29Q3.6 2.29 3.6 1.08L3.6 1.08 3.6-8.64 2.56-8.64Q1.93-8.64 1.93-9.9L1.93-9.9 1.93-13.86Q2.02-14.85 2.38-15.79L2.38-15.79 5.13-21.15Q5.31-21.82 6.39-21.82L6.39-21.82 11.43-21.82Q12.29-21.82 12.38-20.75L12.38-20.75 12.33-17.77Q12.33-16.96 11.52-13.99L11.52-13.99 11.47 1.08Q11.47 2.29 10.21 2.34ZM7.74-22.68L7.74-22.68 3.01-22.68Q2.02-22.68 1.93-23.85L1.93-23.85 1.93-26.68Q1.93-27.72 2.43-28.57L2.43-28.57 5-33.25Q5.44-34.2 6.52-34.2L6.52-34.2 11.21-34.2Q12.33-34.2 12.38-33.07L12.38-33.07 12.38-30.38Q12.38-29.34 11.97-28.66L11.97-28.66 9.13-23.4Q8.82-22.68 7.74-22.68ZM18.09 2.34L18.09 2.34 13.63 2.29Q12.69 2.16 12.42 1.57L12.42 1.57 12.29-0.45Q12.29-1.26 12.76-1.89 13.23-2.52 13.72-3.24L13.72-3.24 13.32-3.24Q12.15-3.24 12.15-4.18L12.15-4.18 12.15-8.78Q12.15-9.72 13.23-9.72L13.23-9.72 18.95-9.72 18.95-10.8 13.86-10.8Q12.82-10.89 12.82-12.78L12.82-12.78 12.78-24.61Q12.2-24.61 12.2-25.65L12.2-25.65Q12.2-28.53 12.38-29.2L12.38-29.2 13.95-33.48Q14.22-34.24 14.8-34.29L14.8-34.29 30.73-34.29Q31.5-34.29 31.5-33.12L31.5-33.12Q31.5-32.76 30.33-28.71L30.33-28.71 30.55-28.71Q31.5-28.71 31.5-27.04L31.5-27.04 31.5-12.78Q31.5-10.84 30.64-10.84L30.64-10.84 25.33-10.84 25.33-9.72 30.46-9.72Q31.59-9.72 31.59-8.82L31.59-8.82 31.63-4.18Q31.63-3.24 30.55-3.24L30.55-3.24 30.2-3.24 31.05-2.02Q31.63-1.48 31.63-0.85L31.63-0.85 31.72 0.81Q31.77 1.98 30.33 2.21L30.33 2.21 25.61 2.21Q24.43 1.89 23.94 1.03L23.94 1.03 21.78-2.65 19.75 1.17Q19.13 1.93 18.09 2.34ZM72.77-6.03L78.8-6.03 78.8-12.42 72.77-12.42 72.77-6.03ZM72.77-20.25L78.75-20.25 78.75-26.59 72.77-26.59 72.77-20.25ZM85.59 2.25L85.59 2.25 66.38 2.25Q64.08 2.21 64.08-0.49L64.08-0.49 63.99-31.54Q63.99-34.24 66.19-34.24L66.19-34.24 85.72-34.2Q87.8-34.2 87.8-31.68L87.8-31.68 87.84-0.32Q87.84 2.16 85.59 2.25ZM53.1 2.29L53.1 2.29 48.51 2.29Q47.2 2.21 47.2 0.81L47.2 0.81 47.16-32.49Q47.16-34.24 48.83-34.24L48.83-34.24 61.65-34.24Q63.18-34.24 63.18-32.94L63.18-32.94Q63.18-31.32 61.7-20.61L61.7-20.61 62.46-20.61Q63.18-20.61 63.27-19.39L63.27-19.39 63.27-0.09Q63.27 1.57 61.65 1.62L61.65 1.62 56.88 1.62Q55.53 1.62 55.53 0.18L55.53 0.18 55.53-6.43Q55.53-7.74 55.98-7.74L55.98-7.74 56.61-7.74 56.61-11.16 55.94-11.16Q55.3-11.25 55.3-12.29L55.3-12.29 55.3-18.9Q55.3-18.99 55.46-20.56 55.62-22.14 55.94-25.24L55.94-25.24 54.41-25.24 54.45 0.9Q54.45 2.25 53.1 2.29ZM131.53-13.05L131.53-13.05 109.44-13.05Q107.46-13.05 107.46-14.67L107.46-14.67 107.5-22.18 106.25-22Q105.44-22 105.44-23.04L105.44-23.04 105.44-28.26Q105.44-29.43 106.16-29.43L106.16-29.43 107.46-29.65 107.46-33.34Q107.46-34.2 108.5-34.2L108.5-34.2 116.1-34.2Q117.13-34.2 117.13-33.16L117.13-33.16 117.13-30.55 131.94-31.95Q132.75-31.95 132.75-31.18L132.75-31.18 132.8-25.24Q132.8-24.52 132.03-24.43L132.03-24.43 117.13-23.18 117.13-21.06 131.58-21.02Q132.66-20.88 132.8-20.25L132.8-20.25 132.8-14.08Q132.7-13.14 131.53-13.05ZM101.75-13.05L101.75-13.05 95.58-13.09Q94.14-13.09 94.14-14.04L94.14-14.04 94.14-22.59 93.15-22.59Q92.34-22.59 92.16-23.4L92.16-23.4 92.16-26.68Q92.2-27.04 92.25-27.34 92.3-27.63 92.39-27.9L92.39-27.9 96.17-33.62Q96.48-34.29 97.69-34.29L97.69-34.29 103.5-34.29Q104.67-34.29 104.81-33.16L104.81-33.16Q104.81-30.29 104.67-29.29L104.67-29.29 103.36-27.77 103.23-14.04Q103.23-13.09 101.75-13.05ZM116.01 2.34L116.01 2.34 108.31 2.29Q106.78 2.29 106.78 1.26L106.78 1.26 106.78-2.29 93.6-2.29Q92.2-2.29 92.2-3.33L92.2-3.33 92.2-9.36Q92.2-10.44 93.56-10.44L93.56-10.44 106.78-10.44 106.78-11.74Q106.78-12.33 107.14-12.6 107.5-12.87 108.13-12.87L108.13-12.87 116.37-12.87Q117.86-12.87 117.86-11.74L117.86-11.74 117.86-10.44 131.26-10.44Q132.75-10.44 132.75-9.4L132.75-9.4 132.8-3.33Q132.8-2.29 131.44-2.29L131.44-2.29 117.81-2.29 117.77 1.26Q117.77 2.29 116.01 2.34ZM176.85 2.43L165.06 2.48Q163.13 2.48 163.08-0.4L163.08-0.4 163.08-15.71 157.54 0.81Q156.91 2.38 155.7 2.38L155.7 2.38 150.12 2.34Q149.26 2.21 149.26 1.21L149.26 1.21 149.22-4.77Q149.22-5.63 149.49-6.3L149.49-6.3 154.98-19.13 150.97-19.13Q149.72-19.13 149.72-20.47L149.72-20.47 149.72-27.22Q149.72-28.66 150.93-28.66L150.93-28.66 157.81-28.66 157.77-33.3Q157.91-34.2 158.99-34.29L158.99-34.29 166.09-34.29Q167.04-34.2 167.04-33.03L167.04-33.03 167.04-28.62 169.74-28.62 169.74-32.09Q169.74-32.89 170.73-32.94L170.73-32.94 174.28-32.94Q175.23-32.85 175.59-31.95L175.59-31.95 176.72-28.62 176.99-28.62Q177.88-28.62 177.88-27.31L177.88-27.31 177.93-20.47Q177.93-19.13 176.67-19.13L176.67-19.13 164.34-19.13 163.89-17.77Q164.25-18 164.75-18L164.75-18 169.74-18Q171.36-17.91 171.36-15.71L171.36-15.71 171.36-7.42 177.07-7.47Q177.84-7.33 177.84-6.12L177.84-6.12 177.88 1.08Q177.88 2.43 176.85 2.43L176.85 2.43ZM146.93 2.25L146.93 2.25 139.86 2.21Q138.51 2.21 138.51 0.58L138.51 0.58 138.51-16.52 137.97-16.52Q137.21-16.52 137.03-17.73L137.03-17.73 137.03-22.63Q137.07-22.99 137.09-23.33 137.12-23.67 137.21-24.03L137.21-24.03 140.94-32.85Q141.34-34.29 142.78-34.29L142.78-34.29 147.82-34.29Q149.31-34.29 149.44-32.89L149.44-32.89 149.44-29.38Q149.44-28.98 149.4-28.42 149.35-27.86 149.26-27.13L149.26-27.13 147.96-23.18 147.96 0.58Q147.96 2.16 146.93 2.25Z" transform="translate(-1.9300000667572021, 34.290000915527344)"></path></g> <!----> <!----> <!----> <!----> <!----> <!----> <!----></g></g> <g data-gra="path-slogan" fill-rule="" class="tp-slogan iconsvg-slogansvg" fill="#333" transform="translate(27.435001373291016,42.77000045776367)"><!----> <!----> <g transform="scale(1, 1)"><g transform="scale(1)"><path d="M2.06-5.06L6.56-5.06L6.56-8.58L7.73-8.58L7.73 0L6.56 0L6.56-3.98L2.06-3.98L2.06 0L0.89 0L0.89-8.58L2.06-8.58L2.06-5.06ZM10.83-1.03L15.98-1.03L15.98 0L9.66 0L9.66-8.58L15.89-8.58L15.89-7.59L10.83-7.59L10.83-4.92L15.52-4.92L15.52-3.89L10.83-3.89L10.83-1.03ZM18.89-8.58L23.20-1.64L23.20-8.58L24.33-8.58L24.33 0L23.02 0L18.66-6.94L18.61-6.94L18.61 0L17.48 0L17.48-8.58L18.89-8.58ZM32.53-3.61L29.91-3.61L29.91-4.59L33.66-4.59L33.66 0L32.91 0L32.63-1.08Q31.64 0.09 29.81 0.14L29.81 0.14Q28.08 0.14 27.14-0.75L27.14-0.75Q25.73-2.06 25.78-4.36L25.78-4.36Q26.11-8.63 29.86-8.81L29.86-8.81Q33.05-8.63 33.52-6L33.52-6L32.39-6Q31.92-7.78 29.81-7.83L29.81-7.83Q27.14-7.64 27-4.31L27-4.31Q27-0.75 29.86-0.75L29.86-0.75Q30.89-0.75 31.64-1.31L31.64-1.31Q32.58-2.06 32.53-3.61L32.53-3.61ZM42.38-8.58L39.14-3.47L39.14 0L37.97 0L37.97-3.47L34.73-8.58L36.09-8.58L38.53-4.45L41.02-8.58L42.38-8.58ZM49.08 0L48.23-2.48L44.77-2.48L43.88 0L42.70 0L45.94-8.58L47.25-8.58L50.34 0L49.08 0ZM46.50-7.31L45.14-3.52L47.81-3.52L46.55-7.31L46.50-7.31ZM52.78-8.58L57.09-1.64L57.09-8.58L58.22-8.58L58.22 0L56.91 0L52.55-6.94L52.50-6.94L52.50 0L51.38 0L51.38-8.58L52.78-8.58ZM66.42-3.61L63.80-3.61L63.80-4.59L67.55-4.59L67.55 0L66.80 0L66.52-1.08Q65.53 0.09 63.70 0.14L63.70 0.14Q61.97 0.14 61.03-0.75L61.03-0.75Q59.63-2.06 59.67-4.36L59.67-4.36Q60-8.63 63.75-8.81L63.75-8.81Q66.94-8.63 67.41-6L67.41-6L66.28-6Q65.81-7.78 63.70-7.83L63.70-7.83Q61.03-7.64 60.89-4.31L60.89-4.31Q60.89-0.75 63.75-0.75L63.75-0.75Q64.78-0.75 65.53-1.31L65.53-1.31Q66.47-2.06 66.42-3.61L66.42-3.61ZM73.83-5.06L78.33-5.06L78.33-8.58L79.50-8.58L79.50 0L78.33 0L78.33-3.98L73.83-3.98L73.83 0L72.66 0L72.66-8.58L73.83-8.58L73.83-5.06ZM86.95-3.19L86.95-8.58L88.13-8.58L88.13-3.05Q87.98 0.05 84.61 0.14L84.61 0.14Q81.47 0.05 81.33-2.86L81.33-2.86L81.33-8.58L82.50-8.58L82.50-3.19Q82.55-0.84 84.66-0.80L84.66-0.80Q86.95-0.84 86.95-3.19L86.95-3.19ZM95.58 0L94.73-2.48L91.27-2.48L90.38 0L89.20 0L92.44-8.58L93.75-8.58L96.84 0L95.58 0ZM93-7.31L91.64-3.52L94.31-3.52L93.05-7.31L93-7.31ZM104.81-8.58L101.58-3.47L101.58 0L100.41 0L100.41-3.47L97.17-8.58L98.53-8.58L100.97-4.45L103.45-8.58L104.81-8.58ZM112.64-4.27L112.64-4.27Q112.45-7.64 109.64-7.83L109.64-7.83Q106.78-7.69 106.64-4.27L106.64-4.27Q106.78-0.94 109.64-0.80L109.64-0.80Q112.45-0.98 112.64-4.27ZM113.81-4.27L113.81-4.27Q113.53 0 109.64 0.14L109.64 0.14Q105.70 0 105.42-4.27L105.42-4.27Q105.66-8.72 109.64-8.81L109.64-8.81Q113.53-8.67 113.81-4.27ZM120.84-3.19L120.84-8.58L122.02-8.58L122.02-3.05Q121.88 0.05 118.50 0.14L118.50 0.14Q115.36 0.05 115.22-2.86L115.22-2.86L115.22-8.58L116.39-8.58L116.39-3.19Q116.44-0.84 118.55-0.80L118.55-0.80Q120.84-0.84 120.84-3.19L120.84-3.19Z" transform="translate(-0.890625, 8.8125)"></path></g></g></g></g></g><defs v-gra="od"></defs></svg>